<?xml version="1.0" encoding="UTF-8" standalone="no"?>
<!DOCTYPE svg PUBLIC "-//W3C//DTD SVG 1.1//EN"
 "http://www.w3.org/Graphics/SVG/1.1/DTD/svg11.dtd">
<!-- Generated by graphviz version 2.42.4 (0)
 -->
<!-- Title: DependencyFinderInterpreterReadable Pages: 1 -->
<svg width="2164pt" height="920pt"
 viewBox="21.60 21.60 2142.00 898.00" xmlns="http://www.w3.org/2000/svg" xmlns:xlink="http://www.w3.org/1999/xlink">
<g id="graph0" class="graph" transform="scale(1 1) rotate(0) translate(46.8 872.8)">
<title>DependencyFinderInterpreterReadable</title>
<polygon fill="white" stroke="transparent" points="-25.2,25.2 -25.2,-851.2 2095.2,-851.2 2095.2,25.2 -25.2,25.2"/>
<text text-anchor="middle" x="1035" y="-806" font-family="Arial" font-size="20.00">DependencyFinder — Interpreter + Enumeration Design</text>
<g id="clust1" class="cluster">
<title>cluster_left</title>
<path fill="white" stroke="#bbbbbb" d="M20,-214C20,-214 194,-214 194,-214 200,-214 206,-220 206,-226 206,-226 206,-354 206,-354 206,-360 200,-366 194,-366 194,-366 20,-366 20,-366 14,-366 8,-360 8,-354 8,-354 8,-226 8,-226 8,-220 14,-214 20,-214"/>
<text text-anchor="middle" x="107" y="-346" font-family="Arial" font-size="20.00">Orchestrator</text>
</g>
<g id="clust2" class="cluster">
<title>cluster_enum</title>
<path fill="white" stroke="#bbbbbb" d="M387,-708C387,-708 605,-708 605,-708 611,-708 617,-714 617,-720 617,-720 617,-776 617,-776 617,-782 611,-788 605,-788 605,-788 387,-788 387,-788 381,-788 375,-782 375,-776 375,-776 375,-720 375,-720 375,-714 381,-708 387,-708"/>
<text text-anchor="middle" x="496" y="-768" font-family="Arial" font-size="20.00">Enumeration Method</text>
</g>
<g id="clust3" class="cluster">
<title>cluster_interp</title>
<path fill="white" stroke="#bbbbbb" d="M406.5,-394C406.5,-394 1497,-394 1497,-394 1503,-394 1509,-400 1509,-406 1509,-406 1509,-679 1509,-679 1509,-685 1503,-691 1497,-691 1497,-691 406.5,-691 406.5,-691 400.5,-691 394.5,-685 394.5,-679 394.5,-679 394.5,-406 394.5,-406 394.5,-400 400.5,-394 406.5,-394"/>
<text text-anchor="middle" x="951.75" y="-671" font-family="Arial" font-size="20.00">Interpreter</text>
</g>
<g id="clust4" class="cluster">
<title>cluster_model</title>
<path fill="white" stroke="#bbbbbb" d="M1612,-8C1612,-8 2050,-8 2050,-8 2056,-8 2062,-14 2062,-20 2062,-20 2062,-342 2062,-342 2062,-348 2056,-354 2050,-354 2050,-354 1612,-354 1612,-354 1606,-354 1600,-348 1600,-342 1600,-342 1600,-20 1600,-20 1600,-14 1606,-8 1612,-8"/>
<text text-anchor="middle" x="1831" y="-334" font-family="Arial" font-size="20.00">Parsed / Analysis Model</text>
</g>
<!-- DependencyFinder -->
<g id="node1" class="node">
<title>DependencyFinder</title>
<polygon fill="#eef5ff" stroke="transparent" points="8,-214 8,-336 206,-336 206,-214 8,-214"/>
<text text-anchor="start" x="57" y="-321.2" font-family="Arial" font-weight="bold" font-size="11.00">DependencyFinder</text>
<text text-anchor="start" x="15" y="-296.2" font-family="Arial" font-size="11.00">&#45; _assignmentInterpreter : IExpression</text>
<text text-anchor="start" x="15" y="-272.2" font-family="Arial" font-size="11.00">+ IdentifyDependencies(...)</text>
<text text-anchor="start" x="15" y="-248.2" font-family="Arial" font-size="11.00">&#45; ParseTemplate(...) : ParseResult</text>
<text text-anchor="start" x="15" y="-224.2" font-family="Arial" font-size="11.00">&#45; ExtractLocalDependencies(...) : List</text>
<polygon fill="none" stroke="#444444" points="8,-214 8,-336 206,-336 206,-214 8,-214"/>
</g>
<!-- EnumerationUtility -->
<g id="node2" class="node">
<title>EnumerationUtility</title>
<polygon fill="#eaf7ea" stroke="transparent" points="375,-708 375,-758 617,-758 617,-708 375,-708"/>
<text text-anchor="start" x="446.5" y="-743.2" font-family="Arial" font-weight="bold" font-size="11.00">EnumerationUtility</text>
<text text-anchor="start" x="382" y="-718.2" font-family="Arial" font-size="11.00">+ Enumerate&lt;T&gt;(items, action, before?, after?)</text>
<polygon fill="none" stroke="#444444" points="375,-708 375,-758 617,-758 617,-708 375,-708"/>
</g>
<!-- DependencyFinder&#45;&gt;EnumerationUtility -->
<g id="edge7" class="edge">
<title>DependencyFinder&#45;&gt;EnumerationUtility</title>
<path fill="none" stroke="#555555" d="M206.19,-333C286.02,-333 385,-333 385,-333 385,-333 385,-699.98 385,-699.98"/>
<polygon fill="#555555" stroke="#555555" points="382.2,-699.98 385,-707.98 387.8,-699.98 382.2,-699.98"/>
<text text-anchor="middle" x="290.5" y="-659" font-family="Arial" font-size="10.00">calls directly</text>
</g>
<!-- AssignmentInterpreterFactory -->
<g id="node3" class="node">
<title>AssignmentInterpreterFactory</title>
<polygon fill="#fff8df" stroke="transparent" points="409.5,-611 409.5,-661 582.5,-661 582.5,-611 409.5,-611"/>
<text text-anchor="start" x="417" y="-646.2" font-family="Arial" font-weight="bold" font-size="11.00">AssignmentInterpreterFactory</text>
<text text-anchor="start" x="417" y="-621.2" font-family="Arial" font-size="11.00">+ Create(...) : IExpression</text>
<polygon fill="none" stroke="#444444" points="409.5,-611 409.5,-661 582.5,-661 582.5,-611 409.5,-611"/>
</g>
<!-- DependencyFinder&#45;&gt;AssignmentInterpreterFactory -->
<g id="edge1" class="edge">
<title>DependencyFinder&#45;&gt;AssignmentInterpreterFactory</title>
<path fill="none" stroke="#555555" d="M107,-336.24C107,-439.23 107,-636 107,-636 107,-636 401.18,-636 401.18,-636"/>
<polygon fill="#555555" stroke="#555555" points="401.19,-638.8 409.18,-636 401.18,-633.2 401.19,-638.8"/>
<text text-anchor="middle" x="290.5" y="-520" font-family="Arial" font-size="10.00">creates interpreter once</text>
</g>
<!-- IExpression -->
<g id="node4" class="node">
<title>IExpression</title>
<polygon fill="#fff8df" stroke="transparent" points="1043,-441.5 1043,-500.5 1178,-500.5 1178,-441.5 1043,-441.5"/>
<text text-anchor="start" x="1080" y="-486" font-family="Arial" font-size="10.00">&lt;&lt;interface&gt;&gt;</text>
<text text-anchor="start" x="1079.5" y="-475.2" font-family="Arial" font-weight="bold" font-size="11.00">IExpression</text>
<text text-anchor="start" x="1050.5" y="-451.2" font-family="Arial" font-size="11.00">+ Interpret(context) : void</text>
<polygon fill="none" stroke="#444444" points="1043,-441.5 1043,-500.5 1178,-500.5 1178,-441.5 1043,-441.5"/>
</g>
<!-- DependencyFinder&#45;&gt;IExpression -->
<g id="edge11" class="edge">
<title>DependencyFinder&#45;&gt;IExpression</title>
<path fill="none" stroke="#555555" d="M206.02,-330C459.31,-330 1111,-330 1111,-330 1111,-330 1111,-433.44 1111,-433.44"/>
<polygon fill="#555555" stroke="#555555" points="1108.2,-433.44 1111,-441.44 1113.8,-433.44 1108.2,-433.44"/>
<text text-anchor="middle" x="680" y="-326" font-family="Arial" font-size="10.00">calls Interpret</text>
</g>
<!-- DependencyInterpretContext -->
<g id="node8" class="node">
<title>DependencyInterpretContext</title>
<polygon fill="#fff8df" stroke="transparent" points="1266,-394 1266,-540 1509,-540 1509,-394 1266,-394"/>
<text text-anchor="start" x="1312" y="-525.2" font-family="Arial" font-weight="bold" font-size="11.00">DependencyInterpretContext</text>
<text text-anchor="start" x="1273.5" y="-500.2" font-family="Arial" font-size="11.00">+ Assignment : AssignmentRecord</text>
<text text-anchor="start" x="1273.5" y="-476.2" font-family="Arial" font-size="11.00">+ TemplateName : string</text>
<text text-anchor="start" x="1273.5" y="-452.2" font-family="Arial" font-size="11.00">+ Dependencies : List&lt;DependencyReference&gt;</text>
<text text-anchor="start" x="1273.5" y="-428.2" font-family="Arial" font-size="11.00">+ FixedPropertyRules</text>
<text text-anchor="start" x="1273.5" y="-404.2" font-family="Arial" font-size="11.00">+ InventoryDependencySlots</text>
<polygon fill="none" stroke="#444444" points="1266,-394 1266,-540 1509,-540 1509,-394 1266,-394"/>
</g>
<!-- DependencyFinder&#45;&gt;DependencyInterpretContext -->
<g id="edge10" class="edge">
<title>DependencyFinder&#45;&gt;DependencyInterpretContext</title>
<path fill="none" stroke="#555555" d="M206.12,-327C500.13,-327 1347,-327 1347,-327 1347,-327 1347,-385.72 1347,-385.72"/>
<polygon fill="#555555" stroke="#555555" points="1344.2,-385.72 1347,-393.72 1349.8,-385.72 1344.2,-385.72"/>
<text text-anchor="middle" x="823" y="-244" font-family="Arial" font-size="10.00">creates per assignment</text>
</g>
<!-- ParseResult -->
<g id="node9" class="node">
<title>ParseResult</title>
<polygon fill="#f7f7f7" stroke="transparent" points="1613.5,-129 1613.5,-227 1829.5,-227 1829.5,-129 1613.5,-129"/>
<text text-anchor="start" x="1689.5" y="-212.2" font-family="Arial" font-weight="bold" font-size="11.00">ParseResult</text>
<text text-anchor="start" x="1620.5" y="-187.2" font-family="Arial" font-size="11.00">+ SourceTemplateName : string</text>
<text text-anchor="start" x="1620.5" y="-163.2" font-family="Arial" font-size="11.00">+ Assignments : List&lt;AssignmentRecord&gt;</text>
<text text-anchor="start" x="1620.5" y="-139.2" font-family="Arial" font-size="11.00">+ Includes : List&lt;string&gt;</text>
<polygon fill="none" stroke="#444444" points="1613.5,-129 1613.5,-227 1829.5,-227 1829.5,-129 1613.5,-129"/>
</g>
<!-- DependencyFinder&#45;&gt;ParseResult -->
<g id="edge8" class="edge">
<title>DependencyFinder&#45;&gt;ParseResult</title>
<path fill="none" stroke="#555555" d="M206.17,-222.67C206.17,-222.67 1605.37,-222.67 1605.37,-222.67"/>
<polygon fill="#555555" stroke="#555555" points="1605.37,-225.47 1613.37,-222.67 1605.37,-219.87 1605.37,-225.47"/>
<text text-anchor="middle" x="973" y="-126" font-family="Arial" font-size="10.00">creates</text>
</g>
<!-- AnalyzeResult -->
<g id="node11" class="node">
<title>AnalyzeResult</title>
<polygon fill="#f7f7f7" stroke="transparent" points="1600,-8 1600,-82 1843,-82 1843,-8 1600,-8"/>
<text text-anchor="start" x="1684" y="-67.2" font-family="Arial" font-weight="bold" font-size="11.00">AnalyzeResult</text>
<text text-anchor="start" x="1607.5" y="-42.2" font-family="Arial" font-size="11.00">+ Dependencies : List&lt;DependencyReference&gt;</text>
<text text-anchor="start" x="1607.5" y="-18.2" font-family="Arial" font-size="11.00">+ VisitedTemplates : HashSet&lt;string&gt;</text>
<polygon fill="none" stroke="#444444" points="1600,-8 1600,-82 1843,-82 1843,-8 1600,-8"/>
</g>
<!-- DependencyFinder&#45;&gt;AnalyzeResult -->
<g id="edge15" class="edge">
<title>DependencyFinder&#45;&gt;AnalyzeResult</title>
<path fill="none" stroke="#555555" d="M206.29,-218.33C540.98,-218.33 1607,-218.33 1607,-218.33 1607,-218.33 1607,-90.18 1607,-90.18"/>
<polygon fill="#555555" stroke="#555555" points="1609.8,-90.18 1607,-82.18 1604.2,-90.18 1609.8,-90.18"/>
<text text-anchor="middle" x="973" y="-31" font-family="Arial" font-size="10.00">returns</text>
</g>
<!-- NonterminalExpression -->
<g id="node5" class="node">
<title>NonterminalExpression</title>
<polygon fill="#fff8df" stroke="transparent" points="743,-560 743,-634 903,-634 903,-560 743,-560"/>
<text text-anchor="start" x="761" y="-619.2" font-family="Arial" font-weight="bold" font-size="11.00">NonterminalExpression</text>
<text text-anchor="start" x="750" y="-594.2" font-family="Arial" font-size="11.00">&#45; _children : List&lt;IExpression&gt;</text>
<text text-anchor="start" x="750" y="-570.2" font-family="Arial" font-size="11.00">+ Interpret(context) : void</text>
<polygon fill="none" stroke="#444444" points="743,-560 743,-634 903,-634 903,-560 743,-560"/>
</g>
<!-- AssignmentInterpreterFactory&#45;&gt;NonterminalExpression -->
<g id="edge2" class="edge">
<title>AssignmentInterpreterFactory&#45;&gt;NonterminalExpression</title>
<path fill="none" stroke="#555555" d="M582.77,-622.5C582.77,-622.5 734.84,-622.5 734.84,-622.5"/>
<polygon fill="#555555" stroke="#555555" points="734.84,-625.3 742.84,-622.5 734.84,-619.7 734.84,-625.3"/>
<text text-anchor="middle" x="680" y="-619" font-family="Arial" font-size="10.00">builds root</text>
</g>
<!-- IExpression&#45;&gt;DependencyInterpretContext -->
<g id="edge12" class="edge">
<title>IExpression&#45;&gt;DependencyInterpretContext</title>
<path fill="none" stroke="#555555" stroke-dasharray="5,2" d="M1178.26,-471C1178.26,-471 1257.86,-471 1257.86,-471"/>
<polygon fill="#555555" stroke="#555555" points="1257.86,-473.8 1265.86,-471 1257.86,-468.2 1257.86,-473.8"/>
<text text-anchor="middle" x="1222" y="-471" font-family="Arial" font-size="10.00">uses</text>
</g>
<!-- NonterminalExpression&#45;&gt;IExpression -->
<g id="edge3" class="edge">
<title>NonterminalExpression&#45;&gt;IExpression</title>
<path fill="none" stroke="#555555" d="M895,-559.69C895,-523.41 895,-473.75 895,-473.75 895,-473.75 1034.91,-473.75 1034.91,-473.75"/>
<polygon fill="none" stroke="#555555" points="1034.91,-476.55 1042.91,-473.75 1034.91,-470.95 1034.91,-476.55"/>
<text text-anchor="middle" x="973" y="-537" font-family="Arial" font-size="10.00">implements</text>
</g>
<!-- NonterminalExpression&#45;&gt;IExpression -->
<g id="edge6" class="edge">
<title>NonterminalExpression&#45;&gt;IExpression</title>
<path fill="none" stroke="#555555" stroke-dasharray="5,2" d="M899,-559.8C899,-527.93 899,-487.12 899,-487.12 899,-487.12 1035,-487.12 1035,-487.12"/>
<polygon fill="#555555" stroke="#555555" points="1035,-489.93 1043,-487.12 1035,-484.33 1035,-489.93"/>
<text text-anchor="middle" x="973" y="-600" font-family="Arial" font-size="10.00">contains children</text>
</g>
<!-- TerminalExpression -->
<g id="node6" class="node">
<title>TerminalExpression</title>
<polygon fill="#fff8df" stroke="transparent" points="755.5,-447 755.5,-507 890.5,-507 890.5,-447 755.5,-447"/>
<text text-anchor="start" x="804" y="-492.2" font-family="Arial" font-style="italic" font-size="11.00">abstract</text>
<text text-anchor="start" x="771" y="-481.2" font-family="Arial" font-weight="bold" font-size="11.00">TerminalExpression</text>
<text text-anchor="start" x="763" y="-457.2" font-family="Arial" font-size="11.00">+ Interpret(context) : void</text>
<polygon fill="none" stroke="#444444" points="755.5,-447 755.5,-507 890.5,-507 890.5,-447 755.5,-447"/>
</g>
<!-- TerminalExpression&#45;&gt;IExpression -->
<g id="edge4" class="edge">
<title>TerminalExpression&#45;&gt;IExpression</title>
<path fill="none" stroke="#555555" d="M890.77,-460.38C890.77,-460.38 1034.69,-460.38 1034.69,-460.38"/>
<polygon fill="none" stroke="#555555" points="1034.69,-463.18 1042.69,-460.38 1034.69,-457.58 1034.69,-463.18"/>
<text text-anchor="middle" x="973" y="-474" font-family="Arial" font-size="10.00">implements</text>
</g>
<!-- ConcreteTerminalExpressions -->
<g id="node7" class="node">
<title>ConcreteTerminalExpressions</title>
<polygon fill="#fff0f0" stroke="transparent" points="394.5,-394 394.5,-564 597.5,-564 597.5,-394 394.5,-394"/>
<text text-anchor="start" x="402" y="-549.2" font-family="Arial" font-weight="bold" font-size="11.00">Concrete terminal / leaf expressions</text>
<text text-anchor="start" x="402" y="-524.2" font-family="Arial" font-size="11.00">SpecializesExpression</text>
<text text-anchor="start" x="402" y="-500.2" font-family="Arial" font-size="11.00">AspectTexturesExpression</text>
<text text-anchor="start" x="402" y="-476.2" font-family="Arial" font-size="11.00">InventoryExpression</text>
<text text-anchor="start" x="402" y="-452.2" font-family="Arial" font-size="11.00">CommonTriggerExpression</text>
<text text-anchor="start" x="402" y="-428.2" font-family="Arial" font-size="11.00">MagicEnchantmentExpression</text>
<text text-anchor="start" x="402" y="-404.2" font-family="Arial" font-size="11.00">... other small rule classes</text>
<polygon fill="none" stroke="#444444" points="394.5,-394 394.5,-564 597.5,-564 597.5,-394 394.5,-394"/>
</g>
<!-- ConcreteTerminalExpressions&#45;&gt;TerminalExpression -->
<g id="edge5" class="edge">
<title>ConcreteTerminalExpressions&#45;&gt;TerminalExpression</title>
<path fill="none" stroke="#555555" d="M597.67,-477C597.67,-477 747.5,-477 747.5,-477"/>
<polygon fill="none" stroke="#555555" points="747.5,-479.8 755.5,-477 747.5,-474.2 747.5,-479.8"/>
<text text-anchor="middle" x="680" y="-481" font-family="Arial" font-size="10.00">inherits</text>
</g>
<!-- AssignmentRecord -->
<g id="node10" class="node">
<title>AssignmentRecord</title>
<polygon fill="#f7f7f7" stroke="transparent" points="1946,-201 1946,-299 2062,-299 2062,-201 1946,-201"/>
<text text-anchor="start" x="1953" y="-284.2" font-family="Arial" font-weight="bold" font-size="11.00">AssignmentRecord</text>
<text text-anchor="start" x="1953" y="-259.2" font-family="Arial" font-size="11.00">+ Key : string</text>
<text text-anchor="start" x="1953" y="-235.2" font-family="Arial" font-size="11.00">+ Value : string</text>
<text text-anchor="start" x="1953" y="-211.2" font-family="Arial" font-size="11.00">+ LineNumber : int</text>
<polygon fill="none" stroke="#444444" points="1946,-201 1946,-299 2062,-299 2062,-201 1946,-201"/>
</g>
<!-- DependencyInterpretContext&#45;&gt;AssignmentRecord -->
<g id="edge13" class="edge">
<title>DependencyInterpretContext&#45;&gt;AssignmentRecord</title>
<path fill="none" stroke="#555555" d="M1509.13,-467C1689.03,-467 2005,-467 2005,-467 2005,-467 2005,-307.24 2005,-307.24"/>
<polygon fill="#555555" stroke="#555555" points="2007.8,-307.24 2005,-299.24 2002.2,-307.24 2007.8,-307.24"/>
<text text-anchor="middle" x="1721.5" y="-454" font-family="Arial" font-size="10.00">current assignment</text>
</g>
<!-- DependencyReference -->
<g id="node12" class="node">
<title>DependencyReference</title>
<polygon fill="#f7f7f7" stroke="transparent" points="1642,-274 1642,-324 1801,-324 1801,-274 1642,-274"/>
<text text-anchor="start" x="1662.5" y="-309.2" font-family="Arial" font-weight="bold" font-size="11.00">DependencyReference</text>
<text text-anchor="start" x="1649.5" y="-284.2" font-family="Arial" font-size="11.00">external model used as output</text>
<polygon fill="none" stroke="#444444" points="1642,-274 1642,-324 1801,-324 1801,-274 1642,-274"/>
</g>
<!-- DependencyInterpretContext&#45;&gt;DependencyReference -->
<g id="edge14" class="edge">
<title>DependencyInterpretContext&#45;&gt;DependencyReference</title>
<path fill="none" stroke="#555555" d="M1428,-393.8C1428,-348.53 1428,-299 1428,-299 1428,-299 1633.69,-299 1633.69,-299"/>
<polygon fill="#555555" stroke="#555555" points="1633.69,-301.8 1641.69,-299 1633.69,-296.2 1633.69,-301.8"/>
<text text-anchor="middle" x="1554.5" y="-375" font-family="Arial" font-size="10.00">emits</text>
</g>
<!-- ParseResult&#45;&gt;AssignmentRecord -->
<g id="edge9" class="edge">
<title>ParseResult&#45;&gt;AssignmentRecord</title>
<path fill="none" stroke="#555555" d="M1829.51,-214C1829.51,-214 1937.87,-214 1937.87,-214"/>
<polygon fill="#555555" stroke="#555555" points="1937.87,-216.8 1945.87,-214 1937.87,-211.2 1937.87,-216.8"/>
<text text-anchor="middle" x="1894.5" y="-205" font-family="Arial" font-size="10.00">contains</text>
</g>
</g>
</svg>
