<?xml version="1.0" encoding="UTF-8" standalone="no"?>
<!DOCTYPE svg PUBLIC "-//W3C//DTD SVG 1.1//EN"
 "http://www.w3.org/Graphics/SVG/1.1/DTD/svg11.dtd">
<!-- Generated by graphviz version 2.42.4 (0)
 -->
<!-- Title: G Pages: 1 -->
<svg width="1227pt" height="888pt"
 viewBox="0.00 0.00 1227.00 888.00" xmlns="http://www.w3.org/2000/svg" xmlns:xlink="http://www.w3.org/1999/xlink">
<g id="graph0" class="graph" transform="scale(1 1) rotate(0) translate(18 870)">
<title>G</title>
<polygon fill="white" stroke="transparent" points="-18,18 -18,-870 1209,-870 1209,18 -18,18"/>
<!-- DependencyFinder&#45;&gt;DependencyInterpretContext -->
<g id="edge4" class="edge">
<title>DependencyFinder&#45;&gt;DependencyInterpretContext</title>
<path fill="none" stroke="#475569" d="M200,-577.33C200,-665.27 200,-773.5 200,-773.5 200,-773.5 561.91,-773.5 561.91,-773.5"/>
<polygon fill="#475569" stroke="#475569" points="561.91,-776.3 569.91,-773.5 561.91,-770.7 561.91,-776.3"/>
<text text-anchor="middle" x="460.5" y="-672.5" font-family="Arial" font-size="10.00" fill="#334155">creates</text>
</g>
<!-- DependencyFinder&#45;&gt;IAssignmentExpression -->
<g id="edge3" class="edge">
<title>DependencyFinder&#45;&gt;IAssignmentExpression</title>
<path fill="none" stroke="#475569" d="M384,-355.87C384,-290.65 384,-220.8 384,-220.8 384,-220.8 623.12,-220.8 623.12,-220.8"/>
<polygon fill="#475569" stroke="#475569" points="623.12,-223.6 631.12,-220.8 623.12,-218 623.12,-223.6"/>
<text text-anchor="middle" x="460.5" y="-273.5" font-family="Arial" font-size="10.00" fill="#334155">uses</text>
</g>
<!-- DependencyFinder&#45;&gt;ParseResult -->
<g id="edge1" class="edge">
<title>DependencyFinder&#45;&gt;ParseResult</title>
<path fill="none" stroke="#475569" d="M400.27,-503C400.27,-503 512.82,-503 512.82,-503"/>
<polygon fill="#475569" stroke="#475569" points="512.82,-505.8 520.82,-503 512.82,-500.2 512.82,-505.8"/>
<text text-anchor="middle" x="460.5" y="-505.5" font-family="Arial" font-size="10.00" fill="#334155">parses to</text>
</g>
<!-- DependencyFinder&#45;&gt;AnalyzeResult -->
<g id="edge2" class="edge">
<title>DependencyFinder&#45;&gt;AnalyzeResult</title>
<path fill="none" stroke="#475569" d="M400.27,-369C400.27,-369 561.68,-369 561.68,-369"/>
<polygon fill="#475569" stroke="#475569" points="561.68,-371.8 569.68,-369 561.68,-366.2 561.68,-371.8"/>
<text text-anchor="middle" x="460.5" y="-337.5" font-family="Arial" font-size="10.00" fill="#334155">returns</text>
</g>
<!-- DependencyInterpretContext&#45;&gt;AssignmentRecord -->
<g id="edge8" class="edge">
<title>DependencyInterpretContext&#45;&gt;AssignmentRecord</title>
<path fill="none" stroke="#475569" d="M866.08,-722.25C866.08,-722.25 1039.74,-722.25 1039.74,-722.25"/>
<polygon fill="#475569" stroke="#475569" points="1039.74,-725.05 1047.74,-722.25 1039.74,-719.45 1039.74,-725.05"/>
<text text-anchor="middle" x="981.5" y="-733.5" font-family="Arial" font-size="10.00" fill="#334155">contains</text>
</g>
<!-- TerminalAssignmentExpression&#45;&gt;IAssignmentExpression -->
<g id="edge5" class="edge">
<title>TerminalAssignmentExpression&#45;&gt;IAssignmentExpression</title>
<path fill="none" stroke="#475569" stroke-dasharray="5,2" d="M358.58,-201.6C358.58,-201.6 623.18,-201.6 623.18,-201.6"/>
<polygon fill="none" stroke="#475569" points="623.18,-204.4 631.18,-201.6 623.18,-198.8 623.18,-204.4"/>
</g>
<!-- NonterminalAssignmentExpression&#45;&gt;IAssignmentExpression -->
<g id="edge6" class="edge">
<title>NonterminalAssignmentExpression&#45;&gt;IAssignmentExpression</title>
<path fill="none" stroke="#475569" stroke-dasharray="5,2" d="M362,-97.22C362,-135.51 362,-182.4 362,-182.4 362,-182.4 623.37,-182.4 623.37,-182.4"/>
<polygon fill="none" stroke="#475569" points="623.37,-185.2 631.37,-182.4 623.37,-179.6 623.37,-185.2"/>
</g>
<!-- NonterminalAssignmentExpression&#45;&gt;IAssignmentExpression -->
<g id="edge7" class="edge">
<title>NonterminalAssignmentExpression&#45;&gt;IAssignmentExpression</title>
<path fill="none" stroke="#475569" d="M364,-106.74C364,-106.74 364,-163.2 364,-163.2 364,-163.2 623.4,-163.2 623.4,-163.2"/>
<polygon fill="none" stroke="#475569" points="364,-106.74 360.8,-101.94 364,-97.14 367.2,-101.94 364,-106.74"/>
<polygon fill="#475569" stroke="#475569" points="623.4,-166 631.4,-163.2 623.4,-160.4 623.4,-166"/>
<text text-anchor="middle" x="460.5" y="-64.5" font-family="Arial" font-size="10.00" fill="#334155">children</text>
</g>
<!-- ParseResult&#45;&gt;AssignmentRecord -->
<g id="edge9" class="edge">
<title>ParseResult&#45;&gt;AssignmentRecord</title>
<path fill="none" stroke="#475569" d="M915.22,-604.75C915.22,-604.75 1039.63,-604.75 1039.63,-604.75"/>
<polygon fill="#475569" stroke="#475569" points="1039.63,-607.55 1047.63,-604.75 1039.63,-601.95 1039.63,-607.55"/>
<text text-anchor="middle" x="981.5" y="-627.5" font-family="Arial" font-size="10.00" fill="#334155">contains list</text>
</g>
<!-- DependencyFinder -->
<g id="node1" class="node">
<title>DependencyFinder</title>
<polygon fill="#e2e8f0" stroke="transparent" points="1,-544.5 1,-575.5 399,-575.5 399,-544.5 1,-544.5"/>
<text text-anchor="start" x="139" y="-557.3" font-family="Arial" font-weight="bold" font-size="14.00">DependencyFinder</text>
<text text-anchor="start" x="9" y="-525.3" font-family="Arial" font-size="14.00">− IAssignmentExpression _assignmentInterpreter</text>
<polyline fill="none" stroke="#334155" points="399,-513.5 1,-513.5 "/>
<text text-anchor="start" x="10" y="-493.3" font-family="Arial" font-size="14.00">+ IdentifyDependencies(template, templateIndex)</text>
<text text-anchor="start" x="9" y="-461.3" font-family="Arial" font-size="14.00">− ExtractLocalDependencies(template, parsed)</text>
<text text-anchor="start" x="9" y="-430.3" font-family="Arial" font-size="14.00">− BuildAssignmentInterpreter() IAssignmentExpression</text>
<text text-anchor="start" x="9" y="-399.3" font-family="Arial" font-size="14.00">− EnumerateAssignments(parsed, action, before, after)</text>
<text text-anchor="start" x="9" y="-368.3" font-family="Arial" font-size="14.00">− EnumerateDependencies(dependencies, action, before, after)</text>
<polygon fill="none" stroke="#334155" points="0,-356 0,-577 400,-577 400,-356 0,-356"/>
</g>
<!-- DependencyInterpretContext -->
<g id="node2" class="node">
<title>DependencyInterpretContext</title>
<polygon fill="#e2e8f0" stroke="transparent" points="571,-819.5 571,-850.5 865,-850.5 865,-819.5 571,-819.5"/>
<text text-anchor="start" x="625" y="-832.3" font-family="Arial" font-weight="bold" font-size="14.00">DependencyInterpretContext</text>
<text text-anchor="start" x="579" y="-800.3" font-family="Arial" font-size="14.00">+ DependencyFinder Finder</text>
<text text-anchor="start" x="579" y="-769.3" font-family="Arial" font-size="14.00">+ string TemplateName</text>
<text text-anchor="start" x="579" y="-738.3" font-family="Arial" font-size="14.00">+ List&lt;DependencyReference&gt; Dependencies</text>
<text text-anchor="start" x="579" y="-707.3" font-family="Arial" font-size="14.00">+ AssignmentRecord Assignment</text>
<polygon fill="none" stroke="#334155" points="570,-695 570,-852 866,-852 866,-695 570,-695"/>
</g>
<!-- IAssignmentExpression -->
<g id="node3" class="node">
<title>IAssignmentExpression</title>
<polygon fill="#dbeafe" stroke="transparent" points="633,-207.5 633,-238.5 804,-238.5 804,-207.5 633,-207.5"/>
<text text-anchor="start" x="641" y="-220.3" font-family="Arial" font-weight="bold" font-size="14.00">IAssignmentExpression</text>
<text text-anchor="start" x="676" y="-189.3" font-family="Arial" font-style="italic" font-size="14.00">&lt;&lt;interface&gt;&gt;</text>
<polyline fill="none" stroke="#334155" points="804,-176.5 633,-176.5 "/>
<text text-anchor="start" x="642" y="-156.3" font-family="Arial" font-size="14.00">+ Interpret(context)</text>
<polygon fill="none" stroke="#334155" points="631.5,-143 631.5,-240 804.5,-240 804.5,-143 631.5,-143"/>
</g>
<!-- TerminalAssignmentExpression -->
<g id="node4" class="node">
<title>TerminalAssignmentExpression</title>
<polygon fill="#e2e8f0" stroke="transparent" points="43,-208.5 43,-239.5 358,-239.5 358,-208.5 43,-208.5"/>
<text text-anchor="start" x="96.5" y="-221.3" font-family="Arial" font-weight="bold" font-size="14.00">TerminalAssignmentExpression</text>
<text text-anchor="start" x="51" y="-189.3" font-family="Arial" font-size="14.00">− Action&lt;DependencyInterpretContext&gt; _interpret</text>
<polyline fill="none" stroke="#334155" points="358,-177.5 43,-177.5 "/>
<text text-anchor="start" x="52" y="-157.3" font-family="Arial" font-size="14.00">+ Interpret(context)</text>
<polygon fill="none" stroke="#334155" points="41.5,-144 41.5,-241 358.5,-241 358.5,-144 41.5,-144"/>
</g>
<!-- NonterminalAssignmentExpression -->
<g id="node5" class="node">
<title>NonterminalAssignmentExpression</title>
<polygon fill="#e2e8f0" stroke="transparent" points="35,-64.5 35,-95.5 366,-95.5 366,-64.5 35,-64.5"/>
<text text-anchor="start" x="85" y="-77.3" font-family="Arial" font-weight="bold" font-size="14.00">NonterminalAssignmentExpression</text>
<text text-anchor="start" x="43" y="-45.3" font-family="Arial" font-size="14.00">− IReadOnlyList&lt;IAssignmentExpression&gt; _children</text>
<polyline fill="none" stroke="#334155" points="366,-33.5 35,-33.5 "/>
<text text-anchor="start" x="44" y="-13.3" font-family="Arial" font-size="14.00">+ Interpret(context)</text>
<polygon fill="none" stroke="#334155" points="33.5,0 33.5,-97 366.5,-97 366.5,0 33.5,0"/>
</g>
<!-- ParseResult -->
<g id="node6" class="node">
<title>ParseResult</title>
<polygon fill="#e2e8f0" stroke="transparent" points="522,-615.5 522,-646.5 914,-646.5 914,-615.5 522,-615.5"/>
<text text-anchor="start" x="678.5" y="-628.3" font-family="Arial" font-weight="bold" font-size="14.00">ParseResult</text>
<text text-anchor="start" x="530" y="-596.3" font-family="Arial" font-size="14.00">+ List&lt;AssignmentRecord&gt; Assignments</text>
<text text-anchor="start" x="530" y="-565.3" font-family="Arial" font-size="14.00">+ List&lt;DependencyReference&gt; NonVanillaBlockDependencies</text>
<text text-anchor="start" x="530" y="-534.3" font-family="Arial" font-size="14.00">+ HashSet&lt;string&gt; LocalSignatures</text>
<text text-anchor="start" x="530" y="-503.3" font-family="Arial" font-size="14.00">+ string Specializes</text>
<text text-anchor="start" x="530" y="-472.3" font-family="Arial" font-size="14.00">+ string AspectModel</text>
<text text-anchor="start" x="530" y="-441.3" font-family="Arial" font-size="14.00">+ bool HasExplicitAspectTexture</text>
<polygon fill="none" stroke="#334155" points="521,-429 521,-648 915,-648 915,-429 521,-429"/>
</g>
<!-- AssignmentRecord -->
<g id="node7" class="node">
<title>AssignmentRecord</title>
<polygon fill="#e2e8f0" stroke="transparent" points="1049.5,-717.5 1049.5,-748.5 1190.5,-748.5 1190.5,-717.5 1049.5,-717.5"/>
<text text-anchor="start" x="1057.5" y="-730.3" font-family="Arial" font-weight="bold" font-size="14.00">AssignmentRecord</text>
<text text-anchor="start" x="1057.5" y="-698.3" font-family="Arial" font-size="14.00">+ string Path</text>
<text text-anchor="start" x="1057.5" y="-667.3" font-family="Arial" font-size="14.00">+ string Key</text>
<text text-anchor="start" x="1057.5" y="-636.3" font-family="Arial" font-size="14.00">+ string Value</text>
<text text-anchor="start" x="1057.5" y="-605.3" font-family="Arial" font-size="14.00">+ int Line</text>
<text text-anchor="start" x="1057.5" y="-574.3" font-family="Arial" font-size="14.00">+ string Signature</text>
<polygon fill="none" stroke="#334155" points="1048,-561.5 1048,-749.5 1191,-749.5 1191,-561.5 1048,-561.5"/>
</g>
<!-- AnalyzeResult -->
<g id="node8" class="node">
<title>AnalyzeResult</title>
<polygon fill="#e2e8f0" stroke="transparent" points="571,-349.5 571,-380.5 865,-380.5 865,-349.5 571,-349.5"/>
<text text-anchor="start" x="671.5" y="-362.3" font-family="Arial" font-weight="bold" font-size="14.00">AnalyzeResult</text>
<text text-anchor="start" x="579" y="-330.3" font-family="Arial" font-size="14.00">+ List&lt;DependencyReference&gt; Dependencies</text>
<text text-anchor="start" x="579" y="-299.3" font-family="Arial" font-size="14.00">+ HashSet&lt;string&gt; LocalSignatures</text>
<polygon fill="none" stroke="#334155" points="570,-287 570,-382 866,-382 866,-287 570,-287"/>
</g>
</g>
</svg>
